<svg width="30" height="30" viewBox="0 0 30 30" fill="none" xmlns="http://www.w3.org/2000/svg">
<path fill-rule="evenodd" clip-rule="evenodd" d="M6.29195 23.7079C6.48691 23.9029 6.74242 24 6.99794 24C7.25345 24 7.50897 23.9029 7.70393 23.7079L15 16.4115L22.2961 23.7079C22.4911 23.9029 22.7466 24 23.0021 24C23.2576 24 23.5131 23.9029 23.7081 23.7079C24.0973 23.318 24.0973 22.6859 23.7081 22.296L16.4116 14.9999L23.7076 7.70369C24.0975 7.31444 24.0975 6.68234 23.7076 6.29243C23.3176 5.90252 22.6862 5.90252 22.2962 6.29243L15 13.5883L7.7037 6.29243C7.31379 5.90252 6.68235 5.90252 6.29243 6.29243C5.90252 6.68167 5.90252 7.31378 6.29243 7.70369L13.5884 14.9999L6.29195 22.296C5.90268 22.6859 5.90268 23.318 6.29195 23.7079Z" fill="white"/>
</svg>
